# xmcd CD database file
#
# Track frame offsets:
#	150
#	26081
#	42349
#	66813
#	91659
#	106050
#	128546
#	140294
#	165122
#	178756
#	190205
#	205399
#	232108
#
# Disc length: 3593 seconds
#
# Revision: 1
# Processed by: cddbd v1.5.2PL0 Copyright (c) Steve Scherf et al.
# Submitted via: CDex 1.70
#
DISCID=a60e070d
DTITLE=Various Artist - The Best of Jazz - Vol. 2 (20th Century Masters)
DYEAR=2006
DGENRE=Jazz
TTITLE0=Dizzy Gillespie, Sonny Stitt and Sonny Rollins - On the Sunny Side of the Street
TTITLE1=Ella Fitzgerald - Let's Do It (Let's Fall in Love)
TTITLE2=Stan Getz, Joao Gilberto, Astrud Gilberto and Antonio Carlos Jobim - The Girl from Ipanema
TTITLE3=Count Basie and Joe Williams - Every Day I Have the Blues
TTITLE4=Billie Holiday With The Gordon Jenkins Singers - God Bless the Child
TTITLE5=John Coltrane and Johnny Hartman - My One and Only Love
TTITLE6=Nina Simone - I Put a Spell on You
TTITLE7=Oscar Peterson - Wheatland
TTITLE8=Sarah Vaughan - Misty
TTITLE9=Dinah Washington and The Belford Hendricks' Orchestra - What a Diff'rence a Day Made
TTITLE10=Chet Baker - Easy Living
TTITLE11=Jimmy Smith - Walk On the Wild Side
TTITLE12=Miles Davis Quintet - If I Were a Bell
EXTD=YEAR: 2006
EXTT0=
EXTT1=
EXTT2=
EXTT3=
EXTT4=
EXTT5=
EXTT6=
EXTT7=
EXTT8=
EXTT9=
EXTT10=
EXTT11=
EXTT12=
PLAYORDER=
